<mxfile host="app.diagrams.net" agent="Mozilla/5.0 (Macintosh; Intel Mac OS X 10_15_7) AppleWebKit/605.1.15 (KHTML, like Gecko) Version/18.0.1 Safari/605.1.15" version="24.7.17">
  <diagram name="Page-1" id="RlqnmqYYoTdcE8wbwLlh">
    <mxGraphModel dx="463" dy="573" grid="1" gridSize="10" guides="1" tooltips="1" connect="1" arrows="1" fold="1" page="1" pageScale="1" pageWidth="827" pageHeight="1169" math="0" shadow="0">
      <root>
        <mxCell id="0" />
        <mxCell id="1" parent="0" />
        <mxCell id="HqwTNDqannSB88Sb7Zla-3" value="" style="edgeStyle=orthogonalEdgeStyle;rounded=0;orthogonalLoop=1;jettySize=auto;html=1;" edge="1" parent="1" source="HqwTNDqannSB88Sb7Zla-1" target="HqwTNDqannSB88Sb7Zla-2">
          <mxGeometry relative="1" as="geometry" />
        </mxCell>
        <mxCell id="HqwTNDqannSB88Sb7Zla-1" value="Begin" style="rounded=1;whiteSpace=wrap;html=1;" vertex="1" parent="1">
          <mxGeometry x="260" y="60" width="120" height="60" as="geometry" />
        </mxCell>
        <mxCell id="HqwTNDqannSB88Sb7Zla-5" value="" style="edgeStyle=orthogonalEdgeStyle;rounded=0;orthogonalLoop=1;jettySize=auto;html=1;entryX=0.5;entryY=0;entryDx=0;entryDy=0;" edge="1" parent="1" source="HqwTNDqannSB88Sb7Zla-2" target="HqwTNDqannSB88Sb7Zla-6">
          <mxGeometry relative="1" as="geometry">
            <mxPoint x="320" y="280" as="targetPoint" />
          </mxGeometry>
        </mxCell>
        <mxCell id="HqwTNDqannSB88Sb7Zla-2" value="Set budget" style="whiteSpace=wrap;html=1;rounded=1;" vertex="1" parent="1">
          <mxGeometry x="260" y="140" width="120" height="60" as="geometry" />
        </mxCell>
        <mxCell id="HqwTNDqannSB88Sb7Zla-8" value="" style="edgeStyle=orthogonalEdgeStyle;rounded=0;orthogonalLoop=1;jettySize=auto;html=1;" edge="1" parent="1" source="HqwTNDqannSB88Sb7Zla-6" target="HqwTNDqannSB88Sb7Zla-7">
          <mxGeometry relative="1" as="geometry" />
        </mxCell>
        <mxCell id="HqwTNDqannSB88Sb7Zla-17" value="" style="edgeStyle=orthogonalEdgeStyle;rounded=0;orthogonalLoop=1;jettySize=auto;html=1;" edge="1" parent="1" source="HqwTNDqannSB88Sb7Zla-6" target="HqwTNDqannSB88Sb7Zla-16">
          <mxGeometry relative="1" as="geometry" />
        </mxCell>
        <mxCell id="HqwTNDqannSB88Sb7Zla-6" value="Cart was modified" style="rhombus;whiteSpace=wrap;html=1;" vertex="1" parent="1">
          <mxGeometry x="250" y="250" width="140" height="90" as="geometry" />
        </mxCell>
        <mxCell id="HqwTNDqannSB88Sb7Zla-11" value="" style="edgeStyle=orthogonalEdgeStyle;rounded=0;orthogonalLoop=1;jettySize=auto;html=1;" edge="1" parent="1" source="HqwTNDqannSB88Sb7Zla-7">
          <mxGeometry relative="1" as="geometry">
            <mxPoint x="500" y="360" as="targetPoint" />
          </mxGeometry>
        </mxCell>
        <mxCell id="HqwTNDqannSB88Sb7Zla-7" value="Compare the current total amount with the budget" style="whiteSpace=wrap;html=1;" vertex="1" parent="1">
          <mxGeometry x="440" y="265" width="120" height="60" as="geometry" />
        </mxCell>
        <mxCell id="HqwTNDqannSB88Sb7Zla-9" value="Yes" style="text;html=1;align=center;verticalAlign=middle;whiteSpace=wrap;rounded=0;" vertex="1" parent="1">
          <mxGeometry x="380" y="265" width="60" height="30" as="geometry" />
        </mxCell>
        <mxCell id="HqwTNDqannSB88Sb7Zla-14" value="" style="edgeStyle=orthogonalEdgeStyle;rounded=0;orthogonalLoop=1;jettySize=auto;html=1;" edge="1" parent="1" source="HqwTNDqannSB88Sb7Zla-12" target="HqwTNDqannSB88Sb7Zla-13">
          <mxGeometry relative="1" as="geometry" />
        </mxCell>
        <mxCell id="HqwTNDqannSB88Sb7Zla-18" style="edgeStyle=orthogonalEdgeStyle;rounded=0;orthogonalLoop=1;jettySize=auto;html=1;" edge="1" parent="1" source="HqwTNDqannSB88Sb7Zla-12" target="HqwTNDqannSB88Sb7Zla-16">
          <mxGeometry relative="1" as="geometry" />
        </mxCell>
        <mxCell id="HqwTNDqannSB88Sb7Zla-12" value="Budget low" style="rhombus;whiteSpace=wrap;html=1;" vertex="1" parent="1">
          <mxGeometry x="460" y="360" width="80" height="80" as="geometry" />
        </mxCell>
        <mxCell id="HqwTNDqannSB88Sb7Zla-13" value="Send notification" style="whiteSpace=wrap;html=1;" vertex="1" parent="1">
          <mxGeometry x="600" y="370" width="120" height="60" as="geometry" />
        </mxCell>
        <mxCell id="HqwTNDqannSB88Sb7Zla-15" value="Yes" style="text;html=1;align=center;verticalAlign=middle;whiteSpace=wrap;rounded=0;" vertex="1" parent="1">
          <mxGeometry x="540" y="370" width="60" height="30" as="geometry" />
        </mxCell>
        <mxCell id="HqwTNDqannSB88Sb7Zla-16" value="End" style="whiteSpace=wrap;html=1;" vertex="1" parent="1">
          <mxGeometry x="260" y="435" width="120" height="60" as="geometry" />
        </mxCell>
      </root>
    </mxGraphModel>
  </diagram>
</mxfile>
